<svg width="400" height="143" viewBox="0 0 400 143" fill="none" xmlns="http://www.w3.org/2000/svg">
<g clip-path="url(#clip0_165_8)">
<path d="M346.056 141.014C344.724 141.014 343.525 140.55 342.46 139.623C341.527 138.564 341.061 137.372 341.061 136.048V114.201H279.125C277.793 114.201 276.594 113.738 275.529 112.811C274.596 111.752 274.13 110.56 274.13 109.236V89.1761C274.13 87.19 274.863 85.2039 276.328 83.2178L334.268 5.36223C336.133 3.1113 338.597 1.98584 341.66 1.98584H372.029C373.494 1.98584 374.693 2.44927 375.625 3.37612C376.691 4.30297 377.224 5.49464 377.224 6.95112V83.4164H394.805C396.404 83.4164 397.669 83.946 398.601 85.0053C399.534 85.9322 400 87.0576 400 88.3817V109.236C400 110.56 399.534 111.752 398.601 112.811C397.669 113.738 396.47 114.201 395.005 114.201H377.224V136.048C377.224 137.505 376.691 138.697 375.625 139.623C374.693 140.55 373.494 141.014 372.029 141.014H346.056ZM309.694 84.8067H341.86V40.1192L309.694 84.8067Z" fill="black"/>
<path d="M200.088 143C181.707 142.868 167.722 138.035 158.132 128.501C148.542 118.968 143.28 106.389 142.348 90.7653C142.082 83.6153 141.948 77.1935 141.948 71.5C141.948 65.6741 142.082 59.0537 142.348 51.6389C142.881 41.7083 145.345 32.9032 149.74 25.2236C154.269 17.4116 160.729 11.2546 169.12 6.75277C177.645 2.25092 187.967 0 200.088 0C212.209 0 222.532 2.25092 231.056 6.75277C239.581 11.2546 246.041 17.4116 250.436 25.2236C254.965 32.9032 257.495 41.7083 258.028 51.6389C258.295 55.3463 258.428 61.9667 258.428 71.5C258.428 80.7685 258.295 87.1903 258.028 90.7653C257.096 106.389 251.835 118.968 242.245 128.501C232.655 138.035 218.602 142.868 200.088 143ZM200.088 113.01C206.348 113.01 211.01 111.024 214.074 107.051C217.137 102.947 218.802 97.187 219.069 89.7722C219.335 85.9324 219.468 79.7093 219.468 71.1028C219.468 62.4963 219.335 56.4056 219.069 52.8306C218.802 45.6806 217.137 40.0532 214.074 35.9486C211.01 31.7116 206.348 29.5931 200.088 29.5931C188.101 29.5931 181.774 37.3389 181.108 52.8306C180.975 56.4056 180.908 62.4963 180.908 71.1028C180.908 79.7093 180.975 85.9324 181.108 89.7722C181.774 105.264 188.101 113.01 200.088 113.01Z" fill="black"/>
<path d="M71.9255 141.014C70.5936 141.014 69.3948 140.55 68.3293 139.623C67.3969 138.564 66.9307 137.372 66.9307 136.048V114.201H4.99483C3.66287 114.201 2.46412 113.738 1.39855 112.811C0.466184 111.752 0 110.56 0 109.236V89.1761C0 87.19 0.732575 85.2039 2.19772 83.2178L60.1377 5.36223C62.0025 3.1113 64.4666 1.98584 67.5301 1.98584H97.8987C99.3638 1.98584 100.563 2.44927 101.495 3.37612C102.561 4.30297 103.093 5.49464 103.093 6.95112V83.4164H120.675C122.273 83.4164 123.539 83.946 124.471 85.0053C125.404 85.9322 125.87 87.0576 125.87 88.3817V109.236C125.87 110.56 125.404 111.752 124.471 112.811C123.539 113.738 122.34 114.201 120.875 114.201H103.093V136.048C103.093 137.505 102.561 138.697 101.495 139.623C100.563 140.55 99.3638 141.014 97.8987 141.014H71.9255ZM35.5632 84.8067H67.7299V40.1192L35.5632 84.8067Z" fill="black"/>
</g>
<defs>
<clipPath id="clip0_165_8">
<rect width="400" height="143" fill="white"/>
</clipPath>
</defs>
</svg>
