<svg width="560" height="143" viewBox="0 0 560 143" fill="none" xmlns="http://www.w3.org/2000/svg">
<rect width="560" height="143" fill="white"/>
<path d="M426.056 141.014C424.724 141.014 423.525 140.55 422.46 139.623C421.527 138.564 421.061 137.372 421.061 136.048V114.201H359.125C357.793 114.201 356.594 113.738 355.529 112.811C354.596 111.752 354.13 110.56 354.13 109.236V89.1761C354.13 87.19 354.863 85.2039 356.328 83.2178L414.268 5.36223C416.133 3.1113 418.597 1.98584 421.66 1.98584H452.029C453.494 1.98584 454.693 2.44927 455.625 3.37612C456.691 4.30297 457.224 5.49464 457.224 6.95112V83.4164H474.805C476.404 83.4164 477.669 83.946 478.601 85.0053C479.534 85.9322 480 87.0576 480 88.3817V109.236C480 110.56 479.534 111.752 478.601 112.811C477.669 113.738 476.47 114.201 475.005 114.201H457.224V136.048C457.224 137.505 456.691 138.697 455.625 139.623C454.693 140.55 453.494 141.014 452.029 141.014H426.056ZM389.694 84.8067H421.86V40.1192L389.694 84.8067Z" fill="black"/>
<path d="M280.088 143C261.707 142.868 247.722 138.035 238.132 128.501C228.542 118.968 223.28 106.389 222.348 90.7653C222.082 83.6153 221.948 77.1935 221.948 71.5C221.948 65.6741 222.082 59.0537 222.348 51.6389C222.881 41.7083 225.345 32.9032 229.74 25.2236C234.269 17.4116 240.729 11.2546 249.12 6.75277C257.645 2.25092 267.967 0 280.088 0C292.209 0 302.532 2.25092 311.056 6.75277C319.581 11.2546 326.041 17.4116 330.436 25.2236C334.965 32.9032 337.495 41.7083 338.028 51.6389C338.295 55.3463 338.428 61.9667 338.428 71.5C338.428 80.7685 338.295 87.1903 338.028 90.7653C337.096 106.389 331.835 118.968 322.245 128.501C312.655 138.035 298.602 142.868 280.088 143ZM280.088 113.01C286.348 113.01 291.01 111.024 294.074 107.051C297.137 102.947 298.802 97.187 299.069 89.7722C299.335 85.9324 299.468 79.7093 299.468 71.1028C299.468 62.4963 299.335 56.4056 299.069 52.8306C298.802 45.6806 297.137 40.0532 294.074 35.9486C291.01 31.7116 286.348 29.5931 280.088 29.5931C268.101 29.5931 261.774 37.3389 261.108 52.8306C260.975 56.4056 260.908 62.4963 260.908 71.1028C260.908 79.7093 260.975 85.9324 261.108 89.7722C261.774 105.264 268.101 113.01 280.088 113.01Z" fill="black"/>
<path d="M151.926 141.014C150.594 141.014 149.395 140.55 148.329 139.623C147.397 138.564 146.931 137.372 146.931 136.048V114.201H84.9948C83.6629 114.201 82.4641 113.738 81.3986 112.811C80.4662 111.752 80 110.56 80 109.236V89.1761C80 87.19 80.7326 85.2039 82.1977 83.2178L140.138 5.36223C142.002 3.1113 144.467 1.98584 147.53 1.98584H177.899C179.364 1.98584 180.563 2.44927 181.495 3.37612C182.561 4.30297 183.093 5.49464 183.093 6.95112V83.4164H200.675C202.273 83.4164 203.539 83.946 204.471 85.0053C205.404 85.9322 205.87 87.0576 205.87 88.3817V109.236C205.87 110.56 205.404 111.752 204.471 112.811C203.539 113.738 202.34 114.201 200.875 114.201H183.093V136.048C183.093 137.505 182.561 138.697 181.495 139.623C180.563 140.55 179.364 141.014 177.899 141.014H151.926ZM115.563 84.8067H147.73V40.1192L115.563 84.8067Z" fill="black"/>
</svg>
