<svg width="254" height="256" viewBox="0 0 254 256" fill="none" xmlns="http://www.w3.org/2000/svg">
<path opacity="0.35" d="M181.059 218.939C190.11 227.995 204.784 227.995 213.834 218.939C222.885 209.883 222.885 195.201 213.834 186.146C204.784 177.09 190.11 177.09 181.059 186.146C172.009 195.201 172.009 209.883 181.059 218.939Z" fill="#526245"/>
<path opacity="0.48" d="M99.0491 232.595C99.0491 245.401 109.425 255.783 122.224 255.783C135.024 255.783 145.399 245.401 145.399 232.595C145.399 219.788 135.024 209.406 122.224 209.406C109.425 209.406 99.0491 219.788 99.0491 232.595Z" fill="#526245"/>
<path opacity="0.09" d="M183.032 69.4127C192.083 78.4683 206.756 78.4683 215.807 69.4127C224.857 60.3571 224.857 45.675 215.807 36.6193C206.756 27.5637 192.083 27.5637 183.032 36.6193C173.982 45.675 173.982 60.3571 183.032 69.4127Z" fill="#526245"/>
<path opacity="0.22" d="M206.116 128.259C206.116 141.065 216.492 151.447 229.292 151.447C242.091 151.447 252.467 141.065 252.467 128.259C252.467 115.452 242.091 105.07 229.292 105.07C216.492 105.07 206.116 115.452 206.116 128.259Z" fill="#526245"/>
<path opacity="0.87" d="M36.1801 70.0978C45.2305 79.1534 59.9042 79.1534 68.9547 70.0977C78.0052 61.0421 78.0052 46.36 68.9547 37.3044C59.9042 28.2488 45.2305 28.2488 36.1801 37.3044C27.1296 46.36 27.1296 61.0421 36.1801 70.0978Z" fill="#526245"/>
<path d="M101.791 24.8456C101.791 37.6522 112.167 48.034 124.966 48.034C137.766 48.034 148.142 37.6522 148.142 24.8456C148.142 12.039 137.766 1.65723 124.966 1.65723C112.167 1.65723 101.791 12.039 101.791 24.8456Z" fill="#526245"/>
<path opacity="0.61" d="M35.6039 213.083C44.6544 222.138 59.3281 222.138 68.3785 213.083C77.429 204.027 77.429 189.345 68.3785 180.289C59.3281 171.234 44.6544 171.234 35.6039 180.289C26.5534 189.345 26.5534 204.027 35.6039 213.083Z" fill="#526245"/>
<path opacity="0.74" d="M0.334198 125.54C0.334198 138.347 10.7101 148.729 23.5094 148.729C36.3087 148.729 46.6846 138.347 46.6846 125.54C46.6846 112.734 36.3087 102.352 23.5094 102.352C10.7101 102.352 0.334198 112.734 0.334198 125.54Z" fill="#526245"/>
</svg>
